<svg width="24" height="20" viewBox="0 0 24 20" fill="none" xmlns="http://www.w3.org/2000/svg">
<path d="M21.6167 10.5833L23.25 12.2283L15.6317 19.9167L11.5833 15.8333L13.2167 14.1883L15.6317 16.615L21.6167 10.5833ZM9.83333 0.666672C11.071 0.666672 12.258 1.15834 13.1332 2.03351C14.0083 2.90868 14.5 4.09566 14.5 5.33334C14.5 6.57102 14.0083 7.758 13.1332 8.63317C12.258 9.50834 11.071 10 9.83333 10C8.59566 10 7.40867 9.50834 6.5335 8.63317C5.65833 7.758 5.16667 6.57102 5.16667 5.33334C5.16667 4.09566 5.65833 2.90868 6.5335 2.03351C7.40867 1.15834 8.59566 0.666672 9.83333 0.666672ZM9.83333 3.00001C9.21449 3.00001 8.621 3.24584 8.18342 3.68342C7.74583 4.12101 7.5 4.7145 7.5 5.33334C7.5 5.95218 7.74583 6.54567 8.18342 6.98325C8.621 7.42084 9.21449 7.66667 9.83333 7.66667C10.4522 7.66667 11.0457 7.42084 11.4832 6.98325C11.9208 6.54567 12.1667 5.95218 12.1667 5.33334C12.1667 4.7145 11.9208 4.12101 11.4832 3.68342C11.0457 3.24584 10.4522 3.00001 9.83333 3.00001ZM9.83333 11.1667C10.6267 11.1667 11.5833 11.2717 12.645 11.47L10.6967 13.4183L9.83333 13.3833C6.36833 13.3833 2.71667 15.0867 2.71667 15.8333V17.1167H9.95L12.1667 19.3333H0.5V15.8333C0.5 12.73 6.71833 11.1667 9.83333 11.1667Z" fill="#80E220"/>
</svg>
