<svg width="27" height="28" viewBox="0 0 27 28" fill="none" xmlns="http://www.w3.org/2000/svg">
<path d="M3.37513 9.62501C3.37501 8.60978 3.61823 7.61045 4.08291 6.71689C4.5476 5.82333 5.21918 5.06356 6.03725 4.50593C6.85531 3.9483 7.79421 3.61029 8.76949 3.5223C9.74477 3.43431 10.7258 3.59911 11.6245 4.00186C12.5231 4.40462 13.3111 5.0327 13.9176 5.82962C14.5241 6.62655 14.9301 7.56731 15.099 8.5673C15.268 9.5673 15.1946 10.5952 14.8854 11.5584C14.5763 12.5217 14.0411 13.3902 13.328 14.0858C14.6726 14.7624 15.8401 15.7653 16.7313 17.0095C17.6226 18.2537 18.2114 19.7024 18.4479 21.2328C18.4739 21.403 18.4674 21.577 18.4286 21.7447C18.3898 21.9123 18.3195 22.0704 18.2218 22.2099C18.1241 22.3494 18.0009 22.4676 17.8591 22.5577C17.7174 22.6478 17.5599 22.7081 17.3957 22.7351C17.2315 22.7621 17.0638 22.7553 16.9021 22.7151C16.7404 22.6749 16.588 22.602 16.4535 22.5007C16.3189 22.3994 16.205 22.2716 16.1181 22.1246C16.0312 21.9776 15.973 21.8143 15.947 21.644C15.6939 19.9995 14.8838 18.5025 13.6621 17.4218C12.4404 16.341 10.8872 15.7473 9.28138 15.7473C7.67557 15.7473 6.12237 16.341 4.90068 17.4218C3.67899 18.5025 2.86886 19.9995 2.61575 21.644C2.5896 21.8143 2.53136 21.9776 2.44437 22.1245C2.35737 22.2715 2.24331 22.3992 2.1087 22.5005C1.9741 22.6017 1.82159 22.6745 1.65987 22.7146C1.49815 22.7547 1.3304 22.7614 1.16619 22.7343C1.00198 22.7071 0.844528 22.6467 0.702825 22.5565C0.561122 22.4663 0.437942 22.348 0.340319 22.2084C0.242695 22.0688 0.17254 21.9107 0.133859 21.743C0.0951772 21.5753 0.0887271 21.4013 0.114877 21.231C0.351692 19.7012 0.940697 18.2531 1.83196 17.0096C2.72323 15.7661 3.89047 14.7637 5.23475 14.0875C4.64695 13.5151 4.17863 12.8238 3.85877 12.0562C3.5389 11.2886 3.3743 10.4612 3.37513 9.62501ZM18.5626 7.00001C19.5431 7.00072 20.5023 7.29657 21.3237 7.85164C22.1452 8.40672 22.7936 9.19715 23.1903 10.127C23.587 11.0568 23.7148 12.0861 23.5584 13.0898C23.4019 14.0936 22.9679 15.0286 22.3089 15.7815C23.336 16.3103 24.2487 17.0503 24.9914 17.9565C25.734 18.8626 26.2912 19.916 26.6289 21.0525C26.6958 21.2731 26.7052 21.5082 26.6562 21.7338C26.6071 21.9594 26.5014 22.1676 26.3498 22.3371C26.1981 22.5067 26.0059 22.6316 25.7926 22.6992C25.5793 22.7668 25.3526 22.7746 25.1354 22.722C24.9185 22.6696 24.7186 22.5589 24.556 22.401C24.3934 22.2431 24.2737 22.0436 24.209 21.8225C23.9066 20.8079 23.3554 19.892 22.6094 19.1644C21.8635 18.4368 20.9482 17.9224 19.9531 17.6715C19.6768 17.6023 19.4309 17.4387 19.2552 17.2069C19.0795 16.9752 18.9841 16.6888 18.9845 16.394V15.778C18.9844 15.5336 19.05 15.2941 19.174 15.0863C19.298 14.8786 19.4755 14.7108 19.6865 14.602C20.1981 14.3391 20.6089 13.9045 20.8523 13.3689C21.0957 12.8332 21.1572 12.228 21.0271 11.6515C20.8969 11.075 20.5826 10.561 20.1352 10.1931C19.6878 9.82526 19.1336 9.62504 18.5626 9.62501C18.227 9.62501 17.905 9.48673 17.6677 9.24058C17.4303 8.99444 17.297 8.6606 17.297 8.31251C17.297 7.96441 17.4303 7.63057 17.6677 7.38443C17.905 7.13829 18.227 7.00001 18.5626 7.00001ZM9.28138 6.12501C8.83193 6.11447 8.38498 6.19715 7.96677 6.36821C7.54856 6.53926 7.16752 6.79524 6.84602 7.12111C6.52452 7.44699 6.26904 7.83618 6.09458 8.26586C5.92011 8.69553 5.83019 9.15702 5.83007 9.62324C5.82996 10.0894 5.91967 10.551 6.09392 10.9808C6.26818 11.4105 6.52347 11.7998 6.84481 12.1259C7.16616 12.4519 7.54708 12.7081 7.9652 12.8794C8.38333 13.0506 8.83024 13.1336 9.27969 13.1233C10.1615 13.103 11.0007 12.7256 11.6175 12.0718C12.2343 11.418 12.5799 10.5397 12.5801 9.62499C12.5803 8.71028 12.2352 7.83183 11.6187 7.17769C11.0022 6.52354 10.1632 6.14569 9.28138 6.12501Z" fill="#CFDEFE"/>
</svg>
