<svg width="36" height="36" viewBox="0 0 36 36" fill="none" xmlns="http://www.w3.org/2000/svg">
<path d="M18.0373 31.5C17.2089 31.5 16.5373 30.8284 16.5373 30V29.7072C16.5373 28.8696 15.9466 28.1654 15.1736 27.8428C14.4103 27.5242 13.7208 27.0933 13.1053 26.55C12.4254 25.9499 11.8737 25.1754 11.45 24.2264C11.1353 23.5215 11.5309 22.7296 12.2463 22.4396C13.0626 22.1087 13.9642 22.5636 14.4096 23.3235C14.6992 23.8176 15.0399 24.2306 15.4318 24.5625C16.1698 25.1875 17.1383 25.5 18.3373 25.5C19.3623 25.5 20.2313 25.2685 20.9443 24.8055C21.6573 24.3425 22.0133 23.624 22.0123 22.65C22.0123 21.775 21.7373 21.0815 21.1873 20.5695C20.6373 20.0575 19.3623 19.476 17.3623 18.825C15.2123 18.15 13.7373 17.3435 12.9373 16.4055C12.1373 15.4675 11.7373 14.324 11.7373 12.975C11.7373 11.35 12.2623 10.0875 13.3123 9.1875C13.903 8.68118 14.5016 8.2975 15.1082 8.03646C15.8856 7.70186 16.5373 7.01061 16.5373 6.1642V6C16.5373 5.17157 17.2089 4.5 18.0373 4.5C18.8657 4.5 19.5373 5.17157 19.5373 6V6.2002C19.5373 7.03551 20.1565 7.71987 20.9379 8.01517C21.5807 8.25812 22.1454 8.5929 22.6318 9.0195C23.0815 9.41387 23.464 9.85581 23.7794 10.3453C24.2144 11.0205 23.8364 11.874 23.0992 12.1928C22.3038 12.5368 21.4196 12.1011 20.8398 11.457C20.6928 11.2936 20.5336 11.1496 20.3623 11.025C19.8123 10.625 19.0623 10.425 18.1123 10.425C17.0123 10.425 16.1748 10.669 15.5998 11.157C15.0248 11.645 14.7373 12.251 14.7373 12.975C14.7373 13.8 15.1123 14.45 15.8623 14.925C16.6123 15.4 17.9123 15.9 19.7623 16.425C21.4873 16.925 22.7938 17.719 23.6818 18.807C24.5698 19.895 25.0133 21.151 25.0123 22.575C25.0123 24.35 24.4873 25.7 23.4373 26.625C22.7261 27.2515 21.9003 27.7174 20.9598 28.0228C20.1619 28.2819 19.5373 28.9723 19.5373 29.8113V30C19.5373 30.8284 18.8657 31.5 18.0373 31.5Z" fill="#CFDEFE"/>
</svg>
