<svg width="20" height="25" viewBox="0 0 20 25" fill="none" xmlns="http://www.w3.org/2000/svg">
<path d="M4.75 9.48438C4.55109 9.48438 4.36032 9.56216 4.21967 9.70061C4.07902 9.83907 4 10.0269 4 10.2227C4 10.4185 4.07902 10.6062 4.21967 10.7447C4.36032 10.8832 4.55109 10.9609 4.75 10.9609H15.25C15.4489 10.9609 15.6397 10.8832 15.7803 10.7447C15.921 10.6062 16 10.4185 16 10.2227C16 10.0269 15.921 9.83907 15.7803 9.70061C15.6397 9.56216 15.4489 9.48438 15.25 9.48438H4.75ZM4 14.6523C4 14.4565 4.07902 14.2688 4.21967 14.1303C4.36032 13.9918 4.55109 13.9141 4.75 13.9141H9.25C9.44891 13.9141 9.63968 13.9918 9.78033 14.1303C9.92098 14.2688 10 14.4565 10 14.6523C10 14.8481 9.92098 15.0359 9.78033 15.1744C9.63968 15.3128 9.44891 15.3906 9.25 15.3906H4.75C4.55109 15.3906 4.36032 15.3128 4.21967 15.1744C4.07902 15.0359 4 14.8481 4 14.6523ZM4.75 18.3438C4.55109 18.3438 4.36032 18.4215 4.21967 18.56C4.07902 18.6984 4 18.8862 4 19.082C4 19.2778 4.07902 19.4656 4.21967 19.6041C4.36032 19.7425 4.55109 19.8203 4.75 19.8203H12.25C12.4489 19.8203 12.6397 19.7425 12.7803 19.6041C12.921 19.4656 13 19.2778 13 19.082C13 18.8862 12.921 18.6984 12.7803 18.56C12.6397 18.4215 12.4489 18.3438 12.25 18.3438H4.75ZM7.75 0.625C7.28451 0.62476 6.8304 0.766643 6.45026 1.0311C6.07012 1.29555 5.78266 1.66955 5.6275 2.10156H3.25C2.65326 2.10156 2.08097 2.33491 1.65901 2.75028C1.23705 3.16564 1 3.72899 1 4.31641V22.0352C1 22.6226 1.23705 23.1859 1.65901 23.6013C2.08097 24.0166 2.65326 24.25 3.25 24.25H16.75C17.3467 24.25 17.919 24.0166 18.341 23.6013C18.7629 23.1859 19 22.6226 19 22.0352V4.31641C19 3.72899 18.7629 3.16564 18.341 2.75028C17.919 2.33491 17.3467 2.10156 16.75 2.10156H14.3725C14.2173 1.66955 13.9299 1.29555 13.5497 1.0311C13.1696 0.766643 12.7155 0.62476 12.25 0.625H7.75ZM12.25 2.10156C12.4489 2.10156 12.6397 2.17935 12.7803 2.3178C12.921 2.45626 13 2.64404 13 2.83984C13 3.03565 12.921 3.22343 12.7803 3.36189C12.6397 3.50034 12.4489 3.57813 12.25 3.57813H7.75C7.55109 3.57813 7.36032 3.50034 7.21967 3.36189C7.07902 3.22343 7 3.03565 7 2.83984C7 2.64404 7.07902 2.45626 7.21967 2.3178C7.36032 2.17935 7.55109 2.10156 7.75 2.10156H12.25ZM3.25 3.57813H5.6275C5.78266 4.01014 6.07012 4.38414 6.45026 4.64859C6.8304 4.91304 7.28451 5.05493 7.75 5.05469H12.25C12.7155 5.05493 13.1696 4.91304 13.5497 4.64859C13.9299 4.38414 14.2173 4.01014 14.3725 3.57813H16.75C16.9489 3.57813 17.1397 3.65591 17.2803 3.79436C17.421 3.93282 17.5 4.1206 17.5 4.31641V22.0352C17.5 22.231 17.421 22.4187 17.2803 22.5572C17.1397 22.6957 16.9489 22.7734 16.75 22.7734H3.25C3.05109 22.7734 2.86032 22.6957 2.71967 22.5572C2.57902 22.4187 2.5 22.231 2.5 22.0352V4.31641C2.5 4.1206 2.57902 3.93282 2.71967 3.79436C2.86032 3.65591 3.05109 3.57813 3.25 3.57813Z" fill="#CFDEFE" stroke="#CFDEFE" stroke-width="0.7"/>
</svg>
