<svg width="36" height="36" viewBox="0 0 36 36" fill="none" xmlns="http://www.w3.org/2000/svg">
<path d="M12.75 14.4844C12.5511 14.4844 12.3603 14.5622 12.2197 14.7006C12.079 14.8391 12 15.0269 12 15.2227C12 15.4185 12.079 15.6062 12.2197 15.7447C12.3603 15.8832 12.5511 15.9609 12.75 15.9609H23.25C23.4489 15.9609 23.6397 15.8832 23.7803 15.7447C23.921 15.6062 24 15.4185 24 15.2227C24 15.0269 23.921 14.8391 23.7803 14.7006C23.6397 14.5622 23.4489 14.4844 23.25 14.4844H12.75ZM12 19.6523C12 19.4565 12.079 19.2688 12.2197 19.1303C12.3603 18.9918 12.5511 18.9141 12.75 18.9141H17.25C17.4489 18.9141 17.6397 18.9918 17.7803 19.1303C17.921 19.2688 18 19.4565 18 19.6523C18 19.8481 17.921 20.0359 17.7803 20.1744C17.6397 20.3128 17.4489 20.3906 17.25 20.3906H12.75C12.5511 20.3906 12.3603 20.3128 12.2197 20.1744C12.079 20.0359 12 19.8481 12 19.6523ZM12.75 23.3438C12.5511 23.3438 12.3603 23.4215 12.2197 23.56C12.079 23.6984 12 23.8862 12 24.082C12 24.2778 12.079 24.4656 12.2197 24.6041C12.3603 24.7425 12.5511 24.8203 12.75 24.8203H20.25C20.4489 24.8203 20.6397 24.7425 20.7803 24.6041C20.921 24.4656 21 24.2778 21 24.082C21 23.8862 20.921 23.6984 20.7803 23.56C20.6397 23.4215 20.4489 23.3438 20.25 23.3438H12.75ZM15.75 5.625C15.2845 5.62476 14.8304 5.76664 14.4503 6.0311C14.0701 6.29555 13.7827 6.66955 13.6275 7.10156H11.25C10.6533 7.10156 10.081 7.33491 9.65901 7.75028C9.23705 8.16564 9 8.72899 9 9.31641V27.0352C9 27.6226 9.23705 28.1859 9.65901 28.6013C10.081 29.0166 10.6533 29.25 11.25 29.25H24.75C25.3467 29.25 25.919 29.0166 26.341 28.6013C26.7629 28.1859 27 27.6226 27 27.0352V9.31641C27 8.72899 26.7629 8.16564 26.341 7.75028C25.919 7.33491 25.3467 7.10156 24.75 7.10156H22.3725C22.2173 6.66955 21.9299 6.29555 21.5497 6.0311C21.1696 5.76664 20.7155 5.62476 20.25 5.625H15.75ZM20.25 7.10156C20.4489 7.10156 20.6397 7.17935 20.7803 7.3178C20.921 7.45626 21 7.64404 21 7.83984C21 8.03565 20.921 8.22343 20.7803 8.36189C20.6397 8.50034 20.4489 8.57813 20.25 8.57813H15.75C15.5511 8.57813 15.3603 8.50034 15.2197 8.36189C15.079 8.22343 15 8.03565 15 7.83984C15 7.64404 15.079 7.45626 15.2197 7.3178C15.3603 7.17935 15.5511 7.10156 15.75 7.10156H20.25ZM11.25 8.57813H13.6275C13.7827 9.01014 14.0701 9.38414 14.4503 9.64859C14.8304 9.91304 15.2845 10.0549 15.75 10.0547H20.25C20.7155 10.0549 21.1696 9.91304 21.5497 9.64859C21.9299 9.38414 22.2173 9.01014 22.3725 8.57813H24.75C24.9489 8.57813 25.1397 8.65591 25.2803 8.79436C25.421 8.93282 25.5 9.1206 25.5 9.31641V27.0352C25.5 27.231 25.421 27.4187 25.2803 27.5572C25.1397 27.6957 24.9489 27.7734 24.75 27.7734H11.25C11.0511 27.7734 10.8603 27.6957 10.7197 27.5572C10.579 27.4187 10.5 27.231 10.5 27.0352V9.31641C10.5 9.1206 10.579 8.93282 10.7197 8.79436C10.8603 8.65591 11.0511 8.57813 11.25 8.57813Z" fill="#364D7F" stroke="#364D7F" stroke-width="0.7"/>
</svg>
