<svg width="21" height="26" viewBox="0 0 21 26" fill="none" xmlns="http://www.w3.org/2000/svg">
<path d="M0.208496 12.875C0.208496 13.2038 0.339095 13.5191 0.571562 13.7515C0.804029 13.984 1.11932 14.1146 1.44808 14.1146H10.8565L8.00548 16.9532C7.88929 17.0685 7.79707 17.2056 7.73414 17.3566C7.67121 17.5077 7.63881 17.6697 7.63881 17.8334C7.63881 17.997 7.67121 18.159 7.73414 18.3101C7.79707 18.4611 7.88929 18.5982 8.00548 18.7135C8.12071 18.8296 8.25781 18.9219 8.40886 18.9848C8.55992 19.0477 8.72194 19.0801 8.88558 19.0801C9.04922 19.0801 9.21124 19.0477 9.3623 18.9848C9.51335 18.9219 9.65045 18.8296 9.76568 18.7135L14.724 13.7551C14.8369 13.6372 14.9253 13.4982 14.9843 13.3461C15.1083 13.0443 15.1083 12.7058 14.9843 12.404C14.9253 12.2518 14.8369 12.1128 14.724 11.9949L9.76568 7.03658C9.65011 6.92101 9.5129 6.82933 9.36189 6.76678C9.21088 6.70423 9.04903 6.67203 8.88558 6.67203C8.72213 6.67203 8.56028 6.70423 8.40927 6.76678C8.25826 6.82933 8.12105 6.92101 8.00548 7.03658C7.8899 7.15216 7.79822 7.28937 7.73567 7.44038C7.67312 7.59139 7.64092 7.75324 7.64092 7.91669C7.64092 8.08014 7.67312 8.24199 7.73567 8.393C7.79822 8.544 7.8899 8.68121 8.00548 8.79679L10.8565 11.6354H1.44808C1.11932 11.6354 0.804029 11.766 0.571562 11.9985C0.339095 12.231 0.208496 12.5463 0.208496 12.875ZM16.3231 0.479187H3.92725C2.94097 0.479187 1.99509 0.870983 1.29769 1.56838C0.600292 2.26578 0.208496 3.21166 0.208496 4.19794V7.91669C0.208496 8.24544 0.339095 8.56074 0.571562 8.7932C0.804029 9.02567 1.11932 9.15627 1.44808 9.15627C1.77684 9.15627 2.09213 9.02567 2.3246 8.7932C2.55706 8.56074 2.68766 8.24544 2.68766 7.91669V4.19794C2.68766 3.86918 2.81826 3.55389 3.05073 3.32142C3.2832 3.08895 3.59849 2.95835 3.92725 2.95835H16.3231C16.6518 2.95835 16.9671 3.08895 17.1996 3.32142C17.4321 3.55389 17.5627 3.86918 17.5627 4.19794V21.5521C17.5627 21.8809 17.4321 22.1962 17.1996 22.4286C16.9671 22.6611 16.6518 22.7917 16.3231 22.7917H3.92725C3.59849 22.7917 3.2832 22.6611 3.05073 22.4286C2.81826 22.1962 2.68766 21.8809 2.68766 21.5521V17.8334C2.68766 17.5046 2.55706 17.1893 2.3246 16.9568C2.09213 16.7244 1.77684 16.5938 1.44808 16.5938C1.11932 16.5938 0.804029 16.7244 0.571562 16.9568C0.339095 17.1893 0.208496 17.5046 0.208496 17.8334V21.5521C0.208496 22.5384 0.600292 23.4843 1.29769 24.1817C1.99509 24.8791 2.94097 25.2709 3.92725 25.2709H16.3231C17.3094 25.2709 18.2552 24.8791 18.9526 24.1817C19.65 23.4843 20.0418 22.5384 20.0418 21.5521V4.19794C20.0418 3.21166 19.65 2.26578 18.9526 1.56838C18.2552 0.870983 17.3094 0.479187 16.3231 0.479187Z" fill="#CFDEFE"/>
</svg>
