<svg width="36" height="35" viewBox="0 0 36 35" fill="none" xmlns="http://www.w3.org/2000/svg">
<path d="M21 16.0417C21 16.8438 20.325 17.5 19.5 17.5H6C5.175 17.5 4.5 16.8438 4.5 16.0417C4.5 15.2396 5.175 14.5833 6 14.5833H19.5C20.325 14.5833 21 15.2396 21 16.0417ZM4.5 10.2083C4.5 11.0104 5.175 11.6667 6 11.6667H19.5C20.325 11.6667 21 11.0104 21 10.2083C21 9.40625 20.325 8.75 19.5 8.75H6C5.175 8.75 4.5 9.40625 4.5 10.2083ZM15 21.875C15 21.0729 14.325 20.4167 13.5 20.4167H6C5.175 20.4167 4.5 21.0729 4.5 21.875C4.5 22.6771 5.175 23.3333 6 23.3333H13.5C14.325 23.3333 15 22.6771 15 21.875ZM27.015 18.7688L28.08 17.7333C28.2188 17.5981 28.3836 17.4909 28.5651 17.4177C28.7465 17.3445 28.941 17.3069 29.1375 17.3069C29.334 17.3069 29.5285 17.3445 29.7099 17.4177C29.8914 17.4909 30.0562 17.5981 30.195 17.7333L31.26 18.7688C31.845 19.3375 31.845 20.2563 31.26 20.825L30.195 21.8604L27.015 18.7688ZM25.95 19.8042L18.21 27.3292C18.075 27.4604 18 27.6354 18 27.8396V29.8958C18 30.3042 18.33 30.625 18.75 30.625H20.865C21.06 30.625 21.255 30.5521 21.39 30.4063L29.13 22.8812L25.95 19.8042Z" fill="#CFDEFE"/>
</svg>
