<svg width="10" height="16" viewBox="0 0 10 16" fill="none" xmlns="http://www.w3.org/2000/svg">
<path d="M1.79198 0.520833L8.81281 7.52083C8.89615 7.60417 8.95531 7.69444 8.99031 7.79167C9.02531 7.88889 9.04253 7.99306 9.04198 8.10417C9.04198 8.21528 9.02476 8.31944 8.99031 8.41667C8.95587 8.51389 8.8967 8.60417 8.81281 8.6875L1.79198 15.7083C1.59754 15.9028 1.35448 16 1.06281 16C0.771147 16 0.521147 15.8958 0.312814 15.6875C0.10448 15.4792 0.000313759 15.2361 0.000313759 14.9583C0.000313759 14.6806 0.10448 14.4375 0.312814 14.2292L6.43781 8.10417L0.312814 1.97917C0.118369 1.78472 0.0211468 1.545 0.0211468 1.26C0.0211468 0.975 0.125313 0.728611 0.333647 0.520833C0.54198 0.3125 0.785035 0.208333 1.06281 0.208333C1.34059 0.208333 1.58365 0.3125 1.79198 0.520833Z" fill="#364D7F"/>
</svg>
